<svg xmlns="http://www.w3.org/2000/svg" preserveAspectRatio="xMidYMid" width="100" height="100" viewBox="0 0 100 100"><defs><style>.cls-1{fill:#fff;fill-rule:evenodd}</style></defs><path d="M68.523 34.733a.7.7 0 0 0-.284.46A23.39 23.39 0 0 1 73.5 50c0 12.979-10.521 23.5-23.5 23.5S26.5 62.979 26.5 50 37.021 26.5 50 26.5c7.251 0 13.731 3.288 18.042 8.451.625-.335 1.013-.616.481-.218zM50 32.375c-9.734 0-17.625 7.891-17.625 17.625S40.266 67.625 50 67.625 67.625 59.734 67.625 50c0-.493-.034-.977-.074-1.459-1.205.386-2.994.513-3.139 1.092-.418 1.673-3.213 1.928-3.213 1.928s-3.396 2.662-4.131 2.111c-.734-.551.826-4.865 1.561-5.141.734-.275 0-2.203 0-2.754 0-.257-2.815-4.547-2.754-4.498-.481-.384-.275-4.039.918-4.131 1.193-.091 5.141.643 4.406 1.928-.265.465.338.397 1.179.153.117-.168.263-.346.433-.601.116-.174.168-.333.193-.485-3.223-3.533-7.845-5.768-13.004-5.768zm8.812 26.897c.459.826 3.489 1.285 2.204 1.101-1.286-.184-1.01 2.479-2.663 2.203-1.652-.275-2.478.826-4.13.826-1.408 0-3.397-1.56-3.948-2.203-.55-.642 1.285-.092 2.02-1.101.734-1.01 1.01-.826 1.928-1.01.918-.184.826-1.01 1.56-1.102.735-.092 2.57.459 3.029 1.286zM48.801 36.744s-4.37 2.933-5.668.726-2.928.351-5.46 2.493c-2.531 2.142-.175-2.228 3.864-4.982s6.679-2.33 8.339-2.028c1.01.184 3.092.401 3.092.401l-2.49 3.85-1.677-.46zm-8.899 8.483c.459-.735 2.203-6.151 3.856-6.151 1.652 0 3.786-1.661 2.019.459-.956 1.147-.817 1.595-.671 1.737a2.376 2.376 0 0 0-.43-.085c-1.469-.183-1.377 4.223-.735 4.957.643.735.918 1.928 1.836 1.102 1.377 0-.367.184 2.112.459 2.478.275 2.662-.643 2.57 1.285-.092 1.928-1.469 2.203-1.744 3.305-.276 1.101-1.377 2.662-1.194 3.58.184.918.092 1.285.459 2.203.368.918.368 4.039-.275 4.039s-1.285-2.57-1.285-2.57l-2.02-2.02-1.652 2.295-1.836-.367-1.285-.918s-3.947-.184-4.131-1.469c-.184-1.285-2.478-2.754-2.478-4.314 0-1.561-1.01-4.131-.184-4.682.826-.551.826.367 1.652-.092.826-.459.551-1.193 2.02-1.193 1.469 0 2.937-.826 3.396-1.56zm5.204-3.955c.181.058.092.09 0 0z" class="cls-1"/></svg>