<svg xmlns="http://www.w3.org/2000/svg" viewBox="0 0 54 54"><path fill="#FFF" d="M29.8 19.8c-.4 0-.7-.3-.7-.7s.3-.7.7-.7.7.3.7.7-.3.7-.7.7zm-5.7 0c-.4 0-.7-.3-.7-.7s.3-.7.7-.7.7.3.7.7-.3.7-.7.7zm6.1-2.8l.3-.4.3-.4.6-.9c.1-.1 0-.3-.1-.3-.1-.1-.3 0-.3.1l-.9 1.3-.3.4c-.9-.3-1.8-.5-2.9-.5-1 0-2 .2-2.9.5l-.3-.4-.3-.4-.6-.9c-.1-.1-.2-.1-.3-.1-.1.1-.1.2-.1.3l.6.9.3.4.3.4c-2 .9-3.4 2.7-3.4 4.7h13.4c0-2.1-1.3-3.8-3.4-4.7zm-9.9 5.6h-.1v10.3c0 .8.7 1.5 1.5 1.5h1.1c0 .1-.1.3-.1.4v3c0 .8.6 1.4 1.4 1.4.8 0 1.4-.6 1.4-1.4v-3c0-.1 0-.3-.1-.4h2.7c0 .1-.1.3-.1.4v3c0 .8.6 1.4 1.4 1.4.8 0 1.4-.6 1.4-1.4v-3c0-.1 0-.3-.1-.4h1.1c.8 0 1.5-.7 1.5-1.5V22.6h-13zm-2.5 0c-.8 0-1.4.6-1.4 1.4v6c0 .8.6 1.4 1.4 1.4.8 0 1.4-.6 1.4-1.4v-6c.1-.8-.6-1.4-1.4-1.4zm18.2 0c-.8 0-1.4.6-1.4 1.4v6c0 .8.6 1.4 1.4 1.4.8 0 1.4-.6 1.4-1.4v-6c.1-.8-.6-1.4-1.4-1.4z"/></svg>