<svg xmlns="http://www.w3.org/2000/svg" preserveAspectRatio="xMidYMid" width="100" height="100" viewBox="0 0 100 100"><defs><style>.cls-1{fill:#fff;fill-rule:evenodd}</style></defs><path d="M71.503 52.741V47.24l-4.595-.368a17.068 17.068 0 0 0-.703-2.636l3.793-2.614-2.751-4.763-4.165 1.98a17.358 17.358 0 0 0-1.927-1.927l1.98-4.166-4.764-2.75-2.614 3.793a17.068 17.068 0 0 0-2.636-.703l-.369-4.595h-5.5l-.368 4.595c-.905.166-1.786.401-2.636.703l-2.614-3.792-4.764 2.749 1.98 4.166a17.273 17.273 0 0 0-1.927 1.927l-4.165-1.98-2.75 4.764 3.792 2.613c-.302.85-.536 1.731-.702 2.637l-4.595.368v5.5l4.595.368c.166.905.4 1.786.702 2.636l-3.791 2.614 2.75 4.763 4.164-1.979a17.282 17.282 0 0 0 1.928 1.927l-1.98 4.165 4.764 2.75 2.613-3.792c.85.302 1.731.537 2.636.703l.368 4.595h5.501l.368-4.595a17.068 17.068 0 0 0 2.636-.703l2.614 3.792 4.764-2.75-1.98-4.165a17.282 17.282 0 0 0 1.927-1.928l4.165 1.98 2.751-4.763-3.793-2.614c.302-.851.537-1.731.703-2.636l4.595-.368zm-21.5 1.55a4.3 4.3 0 1 1 0-8.6 4.3 4.3 0 0 1 0 8.6z" class="cls-1"/></svg>